<?xml version="1.0" encoding="utf-8"?>
<!-- Generator: Adobe Illustrator 24.0.0, SVG Export Plug-In . SVG Version: 6.00 Build 0)  -->
<svg version="1.1" id="Layer_1" xmlns="http://www.w3.org/2000/svg" xmlns:xlink="http://www.w3.org/1999/xlink" x="0px" y="0px"
	 viewBox="0 0 289 86.4" style="enable-background:new 0 0 289 86.4;" xml:space="preserve">
<style type="text/css">
	.st0{fill:#231F20;}
	.st1{fill:#99C221;}
</style>
<g>
	<g>
		<path class="st0" d="M101.4,19.3H90.1v-5.7h29.1v5.7H108v31.1h-6.6L101.4,19.3L101.4,19.3z"/>
		<path class="st0" d="M142.7,38.2c0,0.3,0,0.6,0,0.8c0,0.3,0,0.6-0.1,0.8h-19c0.1,0.9,0.3,1.7,0.7,2.5c0.4,0.8,0.9,1.4,1.6,1.9
			s1.4,1,2.2,1.3c0.8,0.3,1.7,0.5,2.6,0.5c1.6,0,2.9-0.3,3.9-0.9c1.1-0.6,2-1.4,2.6-2.4l4.2,3.3c-2.5,3.3-6,5-10.7,5
			c-1.9,0-3.7-0.3-5.4-0.9s-3-1.5-4.2-2.6c-1.2-1.1-2.1-2.5-2.8-4.1s-1-3.4-1-5.5c0-2,0.3-3.8,1-5.5c0.7-1.6,1.6-3.1,2.8-4.2
			c1.2-1.2,2.6-2.1,4.2-2.7c1.6-0.6,3.4-1,5.2-1c1.7,0,3.3,0.3,4.8,0.9s2.8,1.4,3.8,2.6c1.1,1.1,1.9,2.5,2.5,4.2
			C142.4,34,142.7,36,142.7,38.2z M136.4,35.4c0-0.8-0.1-1.6-0.3-2.3s-0.6-1.4-1.1-1.9c-0.5-0.6-1.1-1-1.9-1.3s-1.6-0.5-2.6-0.5
			c-1.9,0-3.5,0.6-4.8,1.7c-1.3,1.1-2,2.6-2.2,4.3L136.4,35.4L136.4,35.4z"/>
		<path class="st0" d="M149.8,11.1h6.2v39.3h-6.2V11.1z"/>
		<path class="st0" d="M188.6,38.2c0,0.3,0,0.6,0,0.8c0,0.3,0,0.6,0,0.8h-19c0.1,0.9,0.3,1.7,0.7,2.5c0.4,0.8,0.9,1.4,1.6,1.9
			s1.4,1,2.2,1.3c0.8,0.3,1.7,0.5,2.6,0.5c1.6,0,2.9-0.3,4-0.9s2-1.4,2.6-2.4l4.2,3.3c-2.5,3.3-6,5-10.7,5c-1.9,0-3.7-0.3-5.4-0.9
			c-1.6-0.6-3-1.5-4.2-2.6c-1.2-1.1-2.1-2.5-2.8-4.1s-1-3.4-1-5.5c0-2,0.3-3.8,1-5.5c0.7-1.6,1.6-3.1,2.8-4.2
			c1.2-1.2,2.6-2.1,4.2-2.7c1.6-0.6,3.4-1,5.2-1c1.7,0,3.3,0.3,4.8,0.9s2.8,1.4,3.8,2.6c1.1,1.1,1.9,2.5,2.5,4.2
			C188.2,34,188.6,36,188.6,38.2z M182.3,35.4c0-0.8-0.1-1.6-0.3-2.3s-0.6-1.4-1.1-1.9c-0.5-0.6-1.1-1-1.9-1.3s-1.6-0.5-2.6-0.5
			c-1.9,0-3.5,0.6-4.8,1.7c-1.3,1.1-2,2.6-2.2,4.3L182.3,35.4L182.3,35.4z"/>
		<path class="st0" d="M193.1,30.4v-5h4.4v-7.2h6.1v7.2h6.2v5h-6.2V42c0,1.1,0.2,2,0.6,2.8s1.3,1.1,2.7,1.1c0.4,0,0.9,0,1.4-0.1
			c0.5-0.1,0.9-0.2,1.3-0.4l0.2,4.9c-0.6,0.2-1.2,0.4-2,0.5c-0.8,0.1-1.5,0.2-2.2,0.2c-1.7,0-3-0.2-4.1-0.7c-1-0.5-1.9-1.1-2.5-1.9
			c-0.6-0.8-1-1.8-1.2-2.8s-0.3-2.2-0.3-3.4V30.4H193.1z"/>
		<path class="st0" d="M216.4,25.4h6v4.2h0.1c0.7-1.5,1.7-2.6,2.9-3.5s2.7-1.3,4.4-1.3c0.2,0,0.5,0,0.8,0s0.5,0.1,0.7,0.1v5.7
			c-0.4-0.1-0.8-0.2-1.1-0.2c-0.3,0-0.6-0.1-0.9-0.1c-1.4,0-2.6,0.3-3.4,0.8c-0.9,0.5-1.5,1.1-2,1.9s-0.8,1.5-1,2.2
			c-0.2,0.8-0.3,1.4-0.3,1.8v13.4h-6.2L216.4,25.4L216.4,25.4z"/>
		<path class="st0" d="M252.3,47.2h-0.2c-0.6,1.1-1.6,2-3,2.7c-1.4,0.7-3,1.1-4.7,1.1c-1,0-2.1-0.1-3.1-0.4s-2.1-0.7-3-1.3
			c-0.9-0.6-1.7-1.4-2.3-2.4c-0.6-1-0.9-2.2-0.9-3.7c0-1.9,0.5-3.4,1.6-4.5s2.4-2,4.1-2.6c1.7-0.6,3.5-1,5.5-1.2c2-0.2,4-0.3,6-0.3
			v-0.6c0-1.6-0.6-2.7-1.7-3.5s-2.5-1.1-4-1.1c-1.3,0-2.6,0.3-3.8,0.8c-1.2,0.6-2.2,1.2-3,2l-3.2-3.8c1.4-1.3,3.1-2.3,4.9-3
			c1.9-0.7,3.7-1,5.6-1c2.2,0,4,0.3,5.5,0.9c1.4,0.6,2.6,1.4,3.4,2.4c0.8,1,1.4,2.1,1.7,3.4c0.3,1.2,0.5,2.5,0.5,3.7v15.2h-5.8
			L252.3,47.2L252.3,47.2z M252.2,39h-1.4c-1,0-2.1,0-3.2,0.1c-1.1,0.1-2.1,0.3-3.1,0.6c-0.9,0.3-1.7,0.7-2.3,1.2s-0.9,1.3-0.9,2.2
			c0,0.6,0.1,1.1,0.4,1.5s0.6,0.7,1,1c0.4,0.2,0.9,0.4,1.4,0.5s1,0.2,1.6,0.2c2.1,0,3.8-0.6,4.9-1.7c1.1-1.1,1.7-2.7,1.7-4.7V39z"/>
		<path class="st0" d="M283.1,32.3c-0.5-0.7-1.2-1.3-2.2-1.7s-2-0.7-3-0.7c-1.1,0-2.1,0.2-3,0.7c-0.9,0.5-1.6,1.1-2.2,1.8
			c-0.6,0.8-1,1.6-1.3,2.6c-0.3,0.9-0.4,1.9-0.4,2.9s0.1,1.9,0.4,2.9c0.3,0.9,0.7,1.8,1.3,2.6s1.3,1.4,2.2,1.8s1.9,0.7,3.1,0.7
			c1,0,1.9-0.2,2.9-0.6s1.8-0.9,2.3-1.7l3.9,3.9c-1,1.1-2.4,2-4,2.6c-1.6,0.6-3.4,0.9-5.2,0.9c-1.8,0-3.6-0.3-5.2-0.9
			c-1.6-0.6-3.1-1.5-4.3-2.6s-2.2-2.5-2.9-4.2s-1.1-3.5-1.1-5.6c0-2,0.4-3.8,1.1-5.5c0.7-1.6,1.7-3,2.9-4.2c1.2-1.1,2.6-2,4.2-2.7
			s3.3-0.9,5.2-0.9s3.6,0.3,5.3,1c1.7,0.7,3.1,1.7,4.1,2.9L283.1,32.3z"/>
	</g>
	<g>
		<path class="st0" d="M178.4,63.3h2.6l13.4,19.2h0.1V63.3h2v21.9h-2.6L180.5,66h-0.1v19.2h-2L178.4,63.3L178.4,63.3z"/>
		<path class="st0" d="M213.1,79.2c0,0.7,0,1.3,0,1.9c0,0.6,0,1.1,0,1.6s0,0.9,0.1,1.3s0.1,0.8,0.1,1.2h-1.7
			c-0.1-0.7-0.2-1.5-0.2-2.3h-0.1c-0.5,0.9-1.2,1.6-2,2c-0.8,0.4-1.8,0.6-3,0.6c-0.6,0-1.2-0.1-1.8-0.2c-0.6-0.1-1.1-0.4-1.6-0.7
			c-0.5-0.3-0.9-0.8-1.2-1.3c-0.3-0.5-0.5-1.2-0.5-1.9c0-1.1,0.3-2,0.8-2.6s1.2-1.1,2.1-1.4s1.7-0.5,2.6-0.6
			c0.9-0.1,1.7-0.1,2.4-0.1h2.2v-0.9c0-1.2-0.4-2.1-1.1-2.7c-0.8-0.5-1.7-0.8-2.9-0.8c-1.6,0-3.1,0.5-4.4,1.6l-1.1-1.3
			c0.7-0.7,1.5-1.2,2.5-1.5s2-0.5,2.9-0.5c1.7,0,3.1,0.4,4.1,1.2s1.5,2.1,1.5,3.9L213.1,79.2L213.1,79.2z M209.4,78.1
			c-0.8,0-1.5,0.1-2.3,0.2c-0.7,0.1-1.4,0.3-2,0.5s-1.1,0.6-1.4,1c-0.4,0.4-0.5,0.9-0.5,1.6c0,0.4,0.1,0.8,0.3,1.2
			c0.2,0.3,0.5,0.6,0.8,0.8c0.3,0.2,0.6,0.4,1,0.5c0.4,0.1,0.8,0.2,1.2,0.2c1,0,1.8-0.1,2.5-0.4s1.1-0.7,1.5-1.1s0.6-1,0.8-1.6
			c0.1-0.6,0.2-1.2,0.2-1.8v-1L209.4,78.1L209.4,78.1z"/>
		<path class="st0" d="M216,70.9h2.1l4.8,12.3l4.6-12.3h1.9l-5.6,14.3h-1.9L216,70.9z"/>
		<path class="st0" d="M233,75c0-0.3,0-0.6,0-1c0-0.4,0-0.8,0-1.2c0-0.4,0-0.8,0-1.1s0-0.6,0-0.8h1.9c0,0.5,0,1.1,0,1.6
			c0,0.5,0,0.8,0.1,1h0.1c0.4-0.8,1-1.5,1.9-2s1.9-0.8,3-0.8c1,0,1.8,0.2,2.6,0.7c0.8,0.5,1.4,1.3,1.7,2.4c0.5-1.1,1.1-1.9,2-2.3
			c0.9-0.5,1.8-0.7,2.8-0.7c1.1,0,2,0.2,2.7,0.5c0.7,0.3,1.3,0.8,1.7,1.4s0.7,1.2,0.8,2c0.1,0.7,0.2,1.5,0.2,2.3v8.5h-1.9v-8.4
			c0-0.6,0-1.1-0.1-1.7s-0.3-1-0.5-1.5s-0.6-0.8-1.1-1s-1.1-0.4-1.8-0.4c-0.9,0-1.6,0.2-2.1,0.5s-1,0.7-1.3,1.2
			c-0.3,0.5-0.5,1-0.7,1.6s-0.2,1.1-0.2,1.6v8.1h-1.9v-8.6c0-1.3-0.2-2.4-0.7-3.2c-0.5-0.8-1.2-1.2-2.2-1.2c-0.7,0-1.3,0.1-1.9,0.4
			c-0.6,0.2-1.1,0.6-1.6,1.1c-0.4,0.5-0.8,1.1-1,1.8c-0.3,0.7-0.4,1.6-0.4,2.6v7.2H233L233,75L233,75z"/>
		<path class="st0" d="M270.5,79.2c0,0.7,0,1.3,0,1.9c0,0.6,0,1.1,0,1.6s0,0.9,0.1,1.3s0.1,0.8,0.1,1.2h-1.7
			c-0.1-0.7-0.2-1.5-0.2-2.3h-0.1c-0.5,0.9-1.2,1.6-2,2c-0.8,0.4-1.8,0.6-3,0.6c-0.6,0-1.2-0.1-1.8-0.2c-0.6-0.1-1.1-0.4-1.6-0.7
			c-0.5-0.3-0.9-0.8-1.2-1.3c-0.3-0.5-0.5-1.2-0.5-1.9c0-1.1,0.3-2,0.8-2.6s1.2-1.1,2.1-1.4s1.7-0.5,2.6-0.6
			c0.9-0.1,1.7-0.1,2.4-0.1h2.2v-0.9c0-1.2-0.4-2.1-1.1-2.7c-0.8-0.5-1.7-0.8-2.9-0.8c-1.6,0-3.1,0.5-4.4,1.6l-1.1-1.3
			c0.7-0.7,1.5-1.2,2.5-1.5s2-0.5,2.9-0.5c1.7,0,3.1,0.4,4.1,1.2s1.5,2.1,1.5,3.9V79.2z M266.8,78.1c-0.8,0-1.5,0.1-2.3,0.2
			c-0.7,0.1-1.4,0.3-2,0.5s-1.1,0.6-1.4,1c-0.4,0.4-0.5,0.9-0.5,1.6c0,0.4,0.1,0.8,0.3,1.2c0.2,0.3,0.5,0.6,0.8,0.8
			c0.3,0.2,0.6,0.4,1,0.5c0.4,0.1,0.8,0.2,1.2,0.2c1,0,1.8-0.1,2.5-0.4s1.1-0.7,1.5-1.1s0.6-1,0.8-1.6c0.1-0.6,0.2-1.2,0.2-1.8v-1
			L266.8,78.1L266.8,78.1z"/>
		<path class="st0" d="M275.5,75c0-0.3,0-0.6,0-1c0-0.4,0-0.8,0-1.2c0-0.4,0-0.8,0-1.1s0-0.6,0-0.8h1.9c0,0.5,0,1.1,0,1.6
			c0,0.5,0,0.8,0.1,1h0.1c0.4-0.8,1-1.5,1.9-2s1.9-0.8,3-0.8c1.1,0,2,0.2,2.7,0.5c0.7,0.3,1.2,0.8,1.7,1.4c0.4,0.6,0.7,1.2,0.8,2
			c0.1,0.7,0.2,1.5,0.2,2.3v8.5h-1.9v-8.4c0-0.6,0-1.1-0.1-1.7s-0.3-1-0.5-1.5s-0.6-0.8-1.1-1s-1.1-0.4-1.8-0.4
			c-0.7,0-1.3,0.1-1.9,0.4c-0.6,0.2-1.1,0.6-1.6,1.1c-0.4,0.5-0.8,1.1-1,1.8c-0.3,0.7-0.4,1.6-0.4,2.6v7.2h-1.9L275.5,75L275.5,75z"
			/>
	</g>
	<g>
		<g id="XMLID_47_">
			<g id="XMLID_48_">
				<g id="XMLID_49_">
					<g id="XMLID_50_">
						<g id="XMLID_55_">
							<g id="XMLID_56_">
								<path class="st1" d="M37.9,29.6c3.2,5.4,8,9.7,13.3,12.3c1.3-2.4,2.1-5.1,2.3-8c-3.1-1.8-6.2-4.6-8.4-8.3
									c-2.2-3.7-3.1-7.7-3.1-11.3c-2.5-1.2-5.3-1.9-8.2-2.1C33.4,18,34.7,24.2,37.9,29.6z"/>
							</g>
						</g>
						<g id="XMLID_53_">
							<g id="XMLID_54_">
								<path class="st1" d="M32.7,38.5c-6.4,0-12.6,1.9-17.5,5.2c1.5,2.3,3.5,4.3,5.9,5.9c3.2-1.7,7.2-3,11.6-3
									c4.3,0,8.4,1.2,11.6,3c2.3-1.5,4.3-3.5,5.9-5.9C45.3,40.5,39.1,38.5,32.7,38.5z"/>
							</g>
						</g>
						<g id="XMLID_51_">
							<g id="XMLID_52_">
								<path class="st1" d="M27.5,29.7c3.2-5.4,4.6-11.7,4.2-17.5c-2.8,0.1-5.6,0.8-8.2,2.1c-0.1,3.6-1,7.6-3.1,11.3
									c-2.2,3.7-5.3,6.5-8.4,8.3c0.2,2.7,0.9,5.4,2.3,8C19.5,39.4,24.3,35.1,27.5,29.7z"/>
							</g>
						</g>
					</g>
				</g>
			</g>
		</g>
		<g id="XMLID_43_">
			<g id="XMLID_44_">
				<path class="st1" d="M32.8,1.2C15.4,1.2,1.2,15.4,1.2,32.8s14.1,31.6,31.6,31.6c15,0,27.5-10.4,30.7-24.4l8-38.7
					C71.5,1.2,32.8,1.2,32.8,1.2z M50.3,48.9c-8.9,9.7-23.9,10.3-33.6,1.4C7,41.4,6.4,26.4,15.3,16.7s23.9-10.3,33.6-1.4
					C58.5,24.2,59.2,39.2,50.3,48.9z"/>
			</g>
		</g>
	</g>
</g>
</svg>
